<?xml version="1.0" encoding="utf-8"?>
<!-- Generator: Adobe Illustrator 19.2.1, SVG Export Plug-In . SVG Version: 6.00 Build 0)  -->
<svg version="1.1" id="Layer_1" xmlns="http://www.w3.org/2000/svg" xmlns:xlink="http://www.w3.org/1999/xlink" x="0px" y="0px"
	 viewBox="0 0 293.9 92.4" style="enable-background:new 0 0 293.9 92.4;" xml:space="preserve">
<style type="text/css">
	.st0{fill:#E2000F;}
	.st1{fill:#6E6E6E;}
</style>
<path class="st0" d="M180.5,27.4c0.2,0.2,0.6,0.6,0.9,0.9c0.7,1,1.3,2.2,2,3.4l3.5,7.8h-5l-3.1-6.7c-0.4-0.9-1.1-2.3-1.8-2.9
	c-0.6-0.5-1.5-0.6-2.2-0.6h-2.4v10.3h-4.6V13.6h7.5c2.2,0,4.5,0.4,6.1,2c1.6,1.5,2.1,3.7,2.1,5.9c0,1.5-0.2,2.9-1.1,4.3
	C181.9,26.3,181.3,27,180.5,27.4 M158.9,33.3h-8.6l-2,6.2h-4.9l8.9-25.8h4.5l8.8,25.8H161L158.9,33.3z M154.5,20.4l-2.8,8.6h5.7
	L154.5,20.4z M204.5,14.7v5.1l-1.2-0.6c-1-0.5-2-1-3.1-1.2c-0.9-0.2-1.7-0.4-2.7-0.4c-1.1,0-2.3,0.1-3.2,0.9c-0.7,0.6-1,1.3-1,2.3
	c0,0.6,0.1,1.3,0.6,1.8c0.6,0.6,2.1,1,2.9,1.1l1.7,0.4c2,0.4,3.9,1.2,5.3,2.7c1.3,1.5,1.8,3.3,1.8,5.3c0,2.3-0.6,4.4-2.4,6
	s-4.4,2-6.7,2c-1.2,0-2.3-0.1-3.4-0.4c-1.2-0.2-2.6-0.7-3.8-1.2l-0.5-0.2v-5.4l1.2,0.7c1.1,0.6,2.2,1.2,3.3,1.6
	c1,0.4,2.1,0.5,3.2,0.5s2.4-0.1,3.4-1c0.7-0.6,1.1-1.5,1.1-2.4c0-0.9-0.1-1.6-0.7-2.2c-0.7-0.7-1.8-1.1-2.8-1.2l-1.8-0.4
	c-1.8-0.4-3.9-1.1-5.1-2.6c-1.2-1.3-1.7-3.1-1.7-4.9c0-2.2,0.6-4.2,2.3-5.6c1.7-1.6,3.9-2.1,6.1-2.1c1.1,0,2.2,0.1,3.3,0.4
	c1.1,0.2,2.3,0.6,3.4,1L204.5,14.7z M130.3,18v5.5h10.4v4.4h-10.4V35h11.1v4.4h-15.8V13.6h15.4V18C141.1,18,130.3,18,130.3,18z
	 M113.7,23.7l5-10h4.9l-7.7,15.3v10.5h-4.5V28.9l-7.7-15.3h4.9L113.7,23.7z M172.3,18v7h2.8c1,0,2-0.1,2.7-0.9
	c0.7-0.7,0.9-1.7,0.9-2.7s-0.1-2-0.9-2.6c-0.7-0.7-1.7-0.9-2.7-0.9C175.2,18,172.3,18,172.3,18z"/>
<path class="st0" d="M62.7,52.6c7.3,0,13.9-2.9,18.6-7.7S89,33.6,89,26.3s-2.9-13.9-7.7-18.6C76.6,2.9,70,0,62.7,0
	c-7.3,0-13.9,2.9-18.6,7.7S36.4,19,36.4,26.3s2.9,13.9,7.7,18.6C48.9,49.6,55.4,52.6,62.7,52.6 M36.3,10.1c-4.5,0-8.6,1.8-11.5,4.8
	S20,21.9,20,26.3c0,4.5,1.8,8.6,4.8,11.5c2.9,2.9,7.1,4.8,11.5,4.8s8.6-1.8,11.5-4.8c2.9-2.9,4.8-7.1,4.8-11.5
	c0-4.5-1.8-8.6-4.8-11.5C44.7,12,40.8,10.1,36.3,10.1 M10.1,5V0H0v52.6h10.1V26.3c0-7.3,2.9-13.9,7.7-18.6S29.1,0,36.4,0
	S50.3,2.9,55,7.7s7.7,11.3,7.7,18.6S59.8,40.2,55,45c-4.8,4.8-11.3,7.7-18.6,7.7S22.5,49.7,17.8,45s-7.7-11.3-7.7-18.6
	C10.1,26.3,10.1,5,10.1,5z"/>
<path class="st1" d="M245,67.8l-0.4,1.7c-0.2-0.2-0.5-0.4-0.7-0.5c-0.2-0.1-0.6-0.1-0.9-0.1c-0.6,0-1.1,0.1-1.5,0.5
	c-0.4,0.4-0.6,0.9-0.9,1.5c-0.1,0.6-0.1,1.1,0.2,1.5c0.2,0.4,0.7,0.5,1.2,0.5c0.4,0,0.6,0,1-0.1c0.4-0.1,0.6-0.2,0.9-0.5l-0.4,1.7
	c-0.4,0.1-0.7,0.2-1.1,0.2c-0.4,0-0.7,0.1-1.1,0.1c-1.2,0-2.1-0.2-2.6-1c-0.5-0.6-0.7-1.5-0.5-2.6c0.2-1.1,0.7-2,1.6-2.6
	s1.8-0.9,2.9-0.9c0.4,0,0.7,0,1,0.1C244.4,67.5,244.8,67.6,245,67.8 M236.2,64.9h2.1l-0.4,1.7h-2.1L236.2,64.9z M235.6,67.5h2.1
	l-1.3,6.6h-2.1L235.6,67.5z M232.1,64.9h2.1l-2,9.2h-2.1L232.1,64.9z M224.7,68.5c0.4-0.4,0.7-0.6,1.1-0.9c0.4-0.1,0.9-0.2,1.2-0.2
	c0.9,0,1.5,0.4,1.8,1c0.4,0.6,0.5,1.5,0.2,2.4c-0.2,1-0.6,1.8-1.3,2.4c-0.6,0.6-1.3,1-2.2,1c-0.5,0-0.9-0.1-1.1-0.2
	c-0.4-0.1-0.6-0.5-0.7-0.9l-0.2,1h-2.1l2-9.2h2.1L224.7,68.5z M225.2,72.8c0.5,0,0.9-0.1,1.1-0.5s0.5-0.9,0.6-1.5
	c0.1-0.6,0.1-1.1,0-1.5c-0.1-0.4-0.5-0.5-1-0.5c-0.5,0-0.9,0.1-1.1,0.5c-0.4,0.4-0.5,0.9-0.6,1.5c-0.1,0.6-0.1,1.1,0.1,1.5
	C224.5,72.6,224.9,72.8,225.2,72.8 M213.4,71.5l0.9-4h2.1l-0.1,0.6c-0.1,0.4-0.1,0.9-0.2,1.3c-0.1,0.5-0.2,0.9-0.2,1.1
	c-0.1,0.5-0.1,0.9-0.2,1.1c0,0.2,0,0.4,0,0.5s0.1,0.2,0.2,0.4s0.2,0.1,0.5,0.1c0.5,0,0.9-0.1,1.1-0.5c0.4-0.4,0.5-0.9,0.7-1.5
	l0.7-3.3h2.1l-1.3,6.6h-2.1l0.2-1c-0.4,0.4-0.9,0.6-1.2,0.9c-0.4,0.1-0.9,0.2-1.2,0.2c-0.7,0-1.3-0.2-1.6-0.7
	C213.3,73.1,213.1,72.4,213.4,71.5 M208.9,68.9c-0.5,0-0.9,0.1-1.1,0.5c-0.4,0.4-0.5,0.9-0.6,1.5c-0.1,0.6-0.1,1.1,0.1,1.5
	c0.1,0.4,0.5,0.5,1,0.5c0.5,0,0.9-0.1,1.1-0.5c0.2-0.4,0.5-0.9,0.6-1.5c0.1-0.6,0.1-1.1,0-1.5C209.6,69.1,209.4,68.9,208.9,68.9
	 M206.5,73.1l-0.7,3.4h-2.1l2-9h2.1l-0.2,1c0.4-0.4,0.7-0.6,1.1-0.9c0.4-0.1,0.9-0.2,1.2-0.2c0.9,0,1.5,0.4,1.8,1
	c0.4,0.6,0.5,1.5,0.2,2.4c-0.2,1-0.6,1.8-1.3,2.4c-0.6,0.6-1.3,1-2.2,1c-0.5,0-0.9-0.1-1.1-0.2S206.8,73.6,206.5,73.1 M201.4,70.1
	c0.1-0.4,0-0.7-0.1-1c-0.1-0.2-0.5-0.4-0.9-0.4c-0.4,0-0.7,0.1-1.1,0.4c-0.2,0.2-0.5,0.6-0.7,1H201.4z M203.4,70.8l-0.1,0.6h-4.9
	c0,0.5,0,0.9,0.2,1.1c0.2,0.2,0.6,0.4,1.2,0.4c0.5,0,0.9-0.1,1.3-0.2c0.5-0.1,1-0.4,1.6-0.6l-0.4,1.6c-0.5,0.2-1.1,0.4-1.6,0.4
	c-0.5,0.1-1,0.1-1.5,0.1c-1.2,0-2.1-0.2-2.6-0.9c-0.5-0.6-0.7-1.5-0.5-2.6c0.2-1.1,0.7-2,1.5-2.6c0.7-0.6,1.7-1,2.9-1
	c1,0,1.8,0.4,2.3,1C203.5,69,203.6,69.8,203.4,70.8 M189.9,70.8l-0.7,3.3h-2.3l1.8-8.8h3.4c1.1,0,2,0.2,2.4,0.6
	c0.5,0.4,0.6,1,0.4,1.8c-0.1,0.6-0.4,1.1-0.7,1.5c-0.4,0.4-0.9,0.6-1.5,0.9c0.2,0.1,0.5,0.2,0.7,0.5c0.2,0.2,0.4,0.6,0.5,1.1
	l0.7,2.4h-2.4l-0.6-2.2c-0.1-0.5-0.2-0.7-0.5-0.9c-0.2-0.1-0.5-0.2-0.9-0.2C190.3,70.8,189.9,70.8,189.9,70.8z M191.2,69.2
	c0.5,0,0.9-0.1,1.1-0.2c0.2-0.1,0.4-0.5,0.5-0.9c0.1-0.4,0-0.7-0.1-0.9c-0.1-0.1-0.5-0.2-1-0.2h-1l-0.5,2.2
	C190.2,69.2,191.2,69.2,191.2,69.2z M182.1,67.8l-0.4,1.7c-0.2-0.2-0.5-0.4-0.7-0.5c-0.2-0.1-0.6-0.1-0.9-0.1
	c-0.6,0-1.1,0.1-1.5,0.5c-0.4,0.4-0.6,0.9-0.9,1.5c-0.1,0.6-0.1,1.1,0.2,1.5c0.2,0.4,0.7,0.5,1.2,0.5c0.4,0,0.6,0,1-0.1
	c0.4-0.1,0.6-0.2,0.9-0.5l-0.4,1.7c-0.4,0.1-0.7,0.2-1.1,0.2c-0.4,0-0.7,0.1-1.1,0.1c-1.2,0-2.1-0.2-2.6-1c-0.5-0.6-0.7-1.5-0.5-2.6
	c0.2-1.1,0.7-2,1.6-2.6s1.8-0.9,2.9-0.9c0.4,0,0.7,0,1,0.1C181.5,67.5,181.9,67.6,182.1,67.8 M173.3,64.9h2.1l-0.4,1.7H173
	L173.3,64.9z M172.7,67.5h2.1l-1.3,6.6h-2.1L172.7,67.5z M169.7,65.7l-0.4,1.8h2.2l-0.4,1.5h-2.2l-0.6,2.8c-0.1,0.4,0,0.5,0,0.6
	c0.1,0.1,0.4,0.1,0.7,0.1h1.1l-0.4,1.5h-1.8c-0.9,0-1.3-0.1-1.7-0.5c-0.2-0.4-0.4-1-0.1-1.7l0.6-2.8h-1.1l0.4-1.5h1.1l0.4-1.8
	C167.5,65.7,169.7,65.7,169.7,65.7z M164.4,70.3l-0.7,3.8h-2.1l0.2-1c-0.4,0.4-0.7,0.7-1.1,0.9c-0.4,0.1-0.9,0.2-1.3,0.2
	c-0.7,0-1.2-0.2-1.6-0.6c-0.4-0.4-0.5-0.9-0.2-1.6c0.1-0.7,0.6-1.3,1.1-1.7c0.6-0.4,1.5-0.5,2.6-0.5h1.2v-0.1c0.1-0.4,0-0.6-0.2-0.7
	s-0.6-0.2-1.2-0.2c-0.5,0-0.9,0-1.3,0.1c-0.4,0.1-0.9,0.2-1.2,0.4l0.4-1.6c0.5-0.1,1-0.2,1.5-0.2c0.5,0,1-0.1,1.3-0.1
	c1.2,0,2,0.2,2.4,0.7C164.5,68.6,164.6,69.3,164.4,70.3 M161.1,71.2c-0.5,0-0.7,0.1-1.1,0.2c-0.2,0.1-0.4,0.4-0.5,0.6
	c0,0.2,0,0.5,0.1,0.6s0.4,0.2,0.7,0.2c0.4,0,0.7-0.1,1.1-0.5c0.4-0.2,0.5-0.6,0.6-1.1v-0.2h-1V71.2z M157.4,69.3
	c-0.1-0.1-0.4-0.1-0.5-0.2c-0.1,0-0.4-0.1-0.5-0.1c-0.5,0-1,0.1-1.3,0.5c-0.4,0.4-0.6,0.9-0.7,1.5l-0.6,3.1h-2.2l1.3-6.6h2.1
	l-0.2,1.1c0.4-0.5,0.7-0.7,1.1-1c0.4-0.2,0.9-0.2,1.3-0.2c0.1,0,0.1,0,0.2,0s0.2,0,0.4,0L157.4,69.3z M151.1,67.8l-0.4,1.7
	c-0.2-0.2-0.5-0.4-0.7-0.5s-0.6-0.1-0.9-0.1c-0.6,0-1.1,0.1-1.5,0.5c-0.4,0.4-0.6,0.9-0.9,1.5c-0.1,0.6-0.1,1.1,0.2,1.5
	c0.2,0.4,0.7,0.5,1.2,0.5c0.4,0,0.6,0,1-0.1c0.4-0.1,0.6-0.2,0.9-0.5l-0.4,1.7c-0.4,0.1-0.7,0.2-1.1,0.2c-0.4,0-0.7,0.1-1.1,0.1
	c-1.2,0-2.1-0.2-2.6-1c-0.5-0.6-0.7-1.5-0.5-2.6c0.2-1.1,0.7-2,1.6-2.6c0.9-0.6,1.8-0.9,2.9-0.9c0.4,0,0.7,0,1,0.1
	C150.5,67.5,150.7,67.6,151.1,67.8 M140.7,67.4c1.1,0,2,0.4,2.4,1c0.5,0.6,0.6,1.5,0.4,2.6c-0.2,1.1-0.7,2-1.5,2.6
	c-0.7,0.6-1.7,1-2.8,1s-2-0.2-2.4-1c-0.5-0.6-0.6-1.5-0.4-2.6c0.2-1.1,0.7-2,1.5-2.6C138.6,67.6,139.5,67.4,140.7,67.4 M140.3,68.9
	c-0.5,0-0.9,0.1-1.2,0.5c-0.4,0.4-0.5,0.9-0.7,1.5c-0.1,0.6-0.1,1.1,0.1,1.5c0.1,0.4,0.5,0.5,1,0.5c0.5,0,0.9-0.1,1.1-0.5
	c0.4-0.4,0.5-0.9,0.6-1.5s0.1-1.1,0-1.5C141.1,69.1,140.8,68.9,140.3,68.9 M130.8,68.6c0.4-0.4,0.7-0.7,1.1-1
	c0.4-0.2,0.9-0.4,1.2-0.4c0.7,0,1.3,0.2,1.6,0.7c0.2,0.5,0.4,1.1,0.1,2.1l-0.9,4h-2l0.7-3.4v-0.1c0,0,0-0.1,0-0.2
	c0.1-0.5,0.1-0.9,0-1c-0.1-0.2-0.2-0.4-0.6-0.4c-0.4,0-0.7,0.1-1,0.5c-0.2,0.4-0.5,0.9-0.6,1.5l-0.7,3.2h-2.1l0.7-3.4
	c0.1-0.7,0.2-1.2,0.1-1.5c-0.1-0.2-0.2-0.4-0.6-0.4c-0.4,0-0.7,0.1-1.1,0.5c-0.2,0.4-0.5,0.9-0.6,1.5l-0.7,3.3h-2.1l1.3-6.6h2.1
	l-0.2,1c0.4-0.4,0.7-0.6,1.1-0.9c0.4-0.2,0.7-0.2,1.2-0.2c0.5,0,0.9,0.1,1.1,0.4C130.6,67.9,130.7,68.2,130.8,68.6 M120.7,70.1
	c0.1-0.4,0-0.7-0.1-1c-0.1-0.2-0.5-0.4-0.9-0.4c-0.4,0-0.7,0.1-1.1,0.4c-0.2,0.2-0.5,0.6-0.7,1H120.7z M122.6,70.8l-0.1,0.6h-4.9
	c0,0.5,0,0.9,0.2,1.1c0.2,0.2,0.6,0.4,1.2,0.4c0.5,0,0.9-0.1,1.3-0.2c0.5-0.1,1-0.4,1.6-0.6l-0.4,1.6c-0.5,0.2-1.1,0.4-1.6,0.4
	c-0.5,0.1-1,0.1-1.5,0.1c-1.2,0-2.1-0.2-2.6-0.9s-0.7-1.5-0.5-2.6c0.2-1.1,0.7-2,1.5-2.6s1.7-1,2.9-1c1,0,1.8,0.4,2.3,1
	C122.8,69,122.9,69.8,122.6,70.8 M107.4,65.3h2.4c1.3,0,2.3,0.1,2.9,0.2c0.6,0.2,1.1,0.5,1.5,1c0.4,0.4,0.5,0.9,0.6,1.3
	c0.1,0.5,0.1,1.1-0.1,1.7c-0.1,0.6-0.4,1.2-0.7,1.8c-0.4,0.5-0.7,1-1.2,1.3c-0.6,0.5-1.2,0.7-2,1c-0.7,0.2-1.7,0.2-3.1,0.2h-2.4
	L107.4,65.3z M109.2,67l-1.1,5.4h0.9c1,0,1.7-0.2,2.3-0.7c0.6-0.5,1-1.1,1.1-2c0.2-0.9,0.1-1.6-0.2-2c-0.4-0.5-1.1-0.7-2-0.7
	C110.2,67,109.2,67,109.2,67z M222.9,51.6l-0.4,1.8h2.2l-0.4,1.5h-2.2l-0.6,2.8c-0.1,0.4,0,0.5,0,0.6c0.1,0.1,0.4,0.1,0.7,0.1h1.1
	l-0.4,1.5h-1.8c-0.9,0-1.3-0.1-1.7-0.5c-0.2-0.4-0.4-1-0.1-1.7l0.6-2.8h-1.1l0.4-1.5h1.1l0.4-1.8C220.7,51.6,222.9,51.6,222.9,51.6z
	 M218.1,53.7l-0.4,1.6c-0.4-0.2-0.9-0.4-1.2-0.4c-0.4-0.1-0.7-0.1-1.2-0.1c-0.4,0-0.7,0-1,0.1s-0.4,0.2-0.4,0.5c0,0.1,0,0.2,0.1,0.4
	c0.1,0.1,0.4,0.1,0.7,0.2h0.4c1.1,0.1,1.7,0.4,2.1,0.7c0.2,0.4,0.4,0.9,0.2,1.5c-0.1,0.7-0.5,1.2-1.1,1.6c-0.6,0.4-1.5,0.5-2.4,0.5
	c-0.5,0-0.9,0-1.3-0.1c-0.5-0.1-0.9-0.1-1.3-0.4l0.4-1.6c0.4,0.2,0.7,0.4,1.2,0.5c0.4,0.1,0.9,0.1,1.3,0.1c0.4,0,0.7,0,1-0.1
	s0.4-0.2,0.4-0.5s0-0.4-0.1-0.4c-0.1-0.1-0.4-0.1-0.9-0.2h-0.4c-0.9-0.1-1.5-0.4-1.8-0.6c-0.4-0.4-0.4-0.9-0.2-1.5
	c0.1-0.7,0.5-1.2,1.1-1.6c0.6-0.4,1.3-0.5,2.3-0.5c0.4,0,0.7,0,1.2,0.1C217.2,53.5,217.7,53.6,218.1,53.7 M211.6,55.3
	c-0.1-0.1-0.4-0.1-0.5-0.2c-0.1,0-0.4-0.1-0.5-0.1c-0.5,0-1,0.1-1.3,0.5c-0.4,0.4-0.6,0.9-0.7,1.5l-0.6,3.1h-2.1l1.3-6.6h2.1
	l-0.2,1.1c0.4-0.5,0.7-0.7,1.1-1c0.4-0.2,0.9-0.2,1.3-0.2c0.1,0,0.1,0,0.2,0s0.2,0,0.4,0L211.6,55.3z M203.5,50.9h2.1l-0.4,1.7h-2.1
	L203.5,50.9z M202.9,53.5h2.1l-1.3,6.6h-2.1L202.9,53.5z M195.2,51.3h6.1l-0.4,1.7h-3.8l-0.4,1.6h3.7l-0.4,1.7h-3.7l-0.7,3.7h-2.3
	L195.2,51.3z M188.5,53.7l-0.4,1.6c-0.4-0.2-0.9-0.4-1.2-0.4c-0.4-0.1-0.7-0.1-1.2-0.1c-0.4,0-0.7,0-1,0.1c-0.2,0.1-0.4,0.2-0.4,0.5
	c0,0.1,0,0.2,0.1,0.4c0.1,0.1,0.4,0.1,0.7,0.2h0.4c1.1,0.1,1.7,0.4,2.1,0.7c0.2,0.4,0.4,0.9,0.2,1.5c-0.1,0.7-0.5,1.2-1.1,1.6
	s-1.5,0.5-2.4,0.5c-0.5,0-0.9,0-1.3-0.1c-0.5-0.1-0.9-0.1-1.3-0.4l0.4-1.6c0.4,0.2,0.7,0.4,1.2,0.5c0.4,0.1,0.9,0.1,1.3,0.1
	c0.4,0,0.7,0,1-0.1s0.4-0.2,0.4-0.5s0-0.4-0.1-0.4c-0.1-0.1-0.4-0.1-0.9-0.2h-0.4c-1-0.1-1.5-0.4-1.8-0.6c-0.4-0.4-0.4-0.9-0.2-1.5
	c0.1-0.7,0.5-1.2,1.1-1.6c0.5-0.4,1.3-0.5,2.3-0.5c0.4,0,0.7,0,1.2,0.1C187.5,53.5,188,53.6,188.5,53.7 M181.6,51.3l-0.7,3.3h-1.3
	l0.7-3.3H181.6z M177.1,56.4l-0.7,3.8h-2.1l0.2-1c-0.4,0.4-0.7,0.7-1.1,0.9c-0.4,0.1-0.9,0.2-1.3,0.2c-0.7,0-1.2-0.2-1.6-0.6
	c-0.4-0.4-0.5-0.9-0.2-1.6c0.1-0.7,0.6-1.3,1.1-1.7c0.6-0.4,1.5-0.5,2.6-0.5h1.2v-0.1c0.1-0.4,0-0.6-0.2-0.7s-0.6-0.2-1.2-0.2
	c-0.5,0-0.9,0-1.3,0.1c-0.4,0.1-0.9,0.2-1.2,0.4l0.4-1.6c0.5-0.1,1-0.2,1.5-0.2s1-0.1,1.3-0.1c1.2,0,2,0.2,2.4,0.7
	C177.2,54.6,177.4,55.3,177.1,56.4 M173.7,57.1c-0.5,0-0.7,0.1-1.1,0.2c-0.2,0.1-0.4,0.4-0.5,0.6c0,0.2,0,0.5,0.1,0.6
	c0.1,0.1,0.4,0.2,0.7,0.2c0.4,0,0.7-0.1,1.1-0.4c0.4-0.2,0.5-0.6,0.6-1.1v-0.2H173.7z M167.9,50.9h2.1l-0.4,1.7h-2.1L167.9,50.9z
	 M167.3,53.5h2.1l-1.3,6.6H166L167.3,53.5z M161.6,54.9c-0.5,0-0.9,0.1-1.1,0.5c-0.4,0.4-0.5,0.7-0.6,1.3c-0.1,0.6-0.1,1.1,0.1,1.3
	c0.1,0.4,0.5,0.5,1,0.5c0.5,0,0.9-0.1,1.1-0.5c0.4-0.4,0.5-0.7,0.6-1.3c0.1-0.6,0.1-1.1-0.1-1.3C162.3,55.1,162,54.9,161.6,54.9
	 M162.1,59c-0.4,0.4-0.7,0.6-1.1,0.9c-0.4,0.1-0.9,0.2-1.2,0.2c-0.9,0-1.3-0.4-1.8-1c-0.4-0.6-0.5-1.5-0.2-2.4
	c0.2-1,0.6-1.8,1.3-2.4c0.6-0.6,1.3-1,2.2-1c0.5,0,0.9,0.1,1.1,0.2c0.4,0.1,0.6,0.5,0.7,0.9l0.2-1h2.1l-1.2,5.9
	c-0.2,1.1-0.7,1.8-1.5,2.4c-0.7,0.6-1.8,0.9-3.1,0.9c-0.4,0-0.9,0-1.2-0.1c-0.4-0.1-0.7-0.1-1.1-0.2l0.4-1.6c0.4,0.2,0.6,0.4,1,0.5
	c0.4,0.1,0.7,0.1,1,0.1c0.7,0,1.2-0.1,1.6-0.5c0.4-0.2,0.6-0.7,0.7-1.5L162.1,59z M157.3,55.3c-0.1-0.1-0.4-0.1-0.5-0.2
	c-0.1,0-0.4-0.1-0.5-0.1c-0.5,0-1,0.1-1.3,0.5c-0.4,0.4-0.6,0.9-0.7,1.5l-0.6,3.1h-2.1l1.3-6.6h2.1l-0.2,1.1c0.4-0.5,0.7-0.7,1.1-1
	c0.4-0.2,0.9-0.2,1.3-0.2c0.1,0,0.1,0,0.2,0s0.2,0,0.4,0L157.3,55.3z M147.7,53.3c1.1,0,2,0.2,2.4,1c0.5,0.6,0.6,1.5,0.4,2.6
	s-0.7,2-1.5,2.6c-0.7,0.6-1.7,1-2.8,1c-1.1,0-2-0.2-2.4-1c-0.5-0.6-0.6-1.5-0.4-2.6c0.2-1.1,0.7-2,1.5-2.6S146.6,53.3,147.7,53.3
	 M147.4,54.8c-0.5,0-0.9,0.1-1.2,0.5c-0.4,0.4-0.5,0.9-0.7,1.5c-0.1,0.6-0.1,1.1,0.1,1.5c0.1,0.4,0.5,0.5,1,0.5
	c0.5,0,0.9-0.1,1.1-0.5c0.4-0.4,0.5-0.9,0.6-1.5s0.1-1.1,0-1.5C148.2,55.1,147.8,54.8,147.4,54.8 M140.2,56.2c0.1-0.4,0-0.7-0.1-1
	s-0.5-0.4-0.9-0.4s-0.7,0.1-1.1,0.4c-0.2,0.2-0.5,0.6-0.7,1H140.2z M142.2,56.8l-0.1,0.6h-4.9c0,0.5,0,0.9,0.2,1.1s0.6,0.4,1.2,0.4
	c0.5,0,0.9-0.1,1.3-0.2c0.5-0.1,1-0.4,1.6-0.6l-0.4,1.6c-0.5,0.2-1.1,0.4-1.6,0.4c-0.5,0.1-1,0.1-1.5,0.1c-1.2,0-2.1-0.2-2.6-0.9
	c-0.5-0.6-0.7-1.5-0.5-2.6c0.2-1.1,0.7-2,1.5-2.6s1.7-1,2.9-1c1,0,1.8,0.4,2.3,1C142.3,54.9,142.4,55.8,142.2,56.8 M133.1,59.4
	c-0.6,0.2-1.2,0.5-1.8,0.6c-0.6,0.1-1.2,0.2-2,0.2c-1.5,0-2.6-0.4-3.2-1.2c-0.7-0.9-0.9-2-0.6-3.3c0.2-1.5,1-2.6,2-3.3
	c1.1-0.9,2.3-1.2,3.8-1.2c0.6,0,1.1,0,1.6,0.1c0.5,0.1,1,0.2,1.5,0.5l-0.4,1.8c-0.5-0.2-0.9-0.5-1.3-0.6c-0.5-0.1-1-0.2-1.5-0.2
	c-0.9,0-1.7,0.2-2.2,0.7c-0.6,0.5-1,1.2-1.2,2.2c-0.2,1-0.1,1.6,0.2,2.2c0.4,0.5,1,0.7,1.8,0.7c0.2,0,0.5,0,0.6,0
	c0.2,0,0.4-0.1,0.6-0.1l0.4-1.7h-1.3l0.4-1.5h3.5L133.1,59.4z M121.9,50.9l-0.2,1.3h-1.2c-0.2,0-0.5,0-0.6,0.1s-0.2,0.2-0.2,0.6
	l-0.1,0.5h1.8l-0.4,1.5h-1.8l-1.1,5.1h-2.1l1.1-5.1h-1.1l0.4-1.5h1.1l0.1-0.5c0.1-0.7,0.5-1.2,1-1.6c0.5-0.4,1.1-0.5,2-0.5
	C120.4,50.9,121.9,50.9,121.9,50.9z M111.4,51.1c1.5,0,2.4,0.4,3.1,1.2c0.6,0.9,0.7,2,0.5,3.3c-0.2,1.5-1,2.6-2,3.3
	c-1,0.9-2.2,1.2-3.5,1.2c-1.5,0-2.4-0.4-3.1-1.2c-0.6-0.9-0.7-2-0.5-3.3c0.2-1.5,1-2.6,2-3.3C108.8,51.5,109.9,51.1,111.4,51.1
	 M111,52.9c-0.7,0-1.2,0.2-1.7,0.7c-0.5,0.5-0.9,1.2-1,2.2c-0.2,1-0.1,1.6,0.1,2.2c0.2,0.5,0.7,0.7,1.5,0.7s1.3-0.2,1.8-0.7
	c0.5-0.5,0.9-1.2,1-2.2c0.2-1,0.1-1.6-0.1-2.2C112.2,53.1,111.8,52.9,111,52.9"/>
</svg>
