<?xml version="1.0" encoding="utf-8"?>
<!-- Generator: Adobe Illustrator 19.2.1, SVG Export Plug-In . SVG Version: 6.00 Build 0)  -->
<svg version="1.1" id="Layer_1" xmlns="http://www.w3.org/2000/svg" xmlns:xlink="http://www.w3.org/1999/xlink" x="0px" y="0px"
	 viewBox="0 0 293.9 92.4" style="enable-background:new 0 0 293.9 92.4;" xml:space="preserve">
<style type="text/css">
	.st0{clip-path:url(#SVGID_2_);fill:#6D6E70;}
	.st1{clip-path:url(#SVGID_2_);fill:#ED1D24;}
</style>
<g>
	<defs>
		<rect id="SVGID_1_" y="0" width="293.9" height="92.4"/>
	</defs>
	<clipPath id="SVGID_2_">
		<use xlink:href="#SVGID_1_"  style="overflow:visible;"/>
	</clipPath>
	<path class="st0" d="M279.1,75.3c-0.2,0.9-0.5,1.6-1.1,2c-0.5,0.4-1.3,0.7-2.2,0.7c-2,0-2.8-0.9-2.4-2.6L274,74h1.9l-0.5,1.4
		c-0.2,0.8,0.1,1.3,0.8,1.3c0.5,0,0.9-0.4,1.1-1.3l0.2-0.9c0.2-0.8,0-1.1-0.6-1.1h-1.3l0.3-1.4h0.8c0.9-0.2,1.4-0.6,1.6-1.2
		c0.1-0.6-0.2-1.4-0.9-2.3h2.4c0.4,0.8,0.5,1.5,0.4,2.3c-0.2,0.7-0.6,1.3-1.4,1.7c0.7,0.4,0.9,1.1,0.7,2L279.1,75.3z M273.1,71.6
		c-0.2,1-0.7,2.2-1.4,3.6h-2c0.7-1.3,1.2-2.5,1.5-3.6c0.3-1.3,0.1-2-0.5-2c-0.6,0-1.1,0.7-1.4,2c-0.2,1.1-0.2,2.3,0,3.5h-2
		c-0.1-0.7-0.1-1.3-0.1-1.9c0-0.6,0.1-1.2,0.2-1.7c0.5-2.2,1.7-3.3,3.6-3.3C272.8,68.2,273.5,69.4,273.1,71.6 M266.2,71
		c-0.1,0.5-0.3,1.1-0.7,1.6c-0.3,0.5-0.8,1.1-1.3,1.7H262c1.4-1.2,2.1-2.3,2.3-3.2c0.2-0.9,0-1.4-0.5-1.4c-0.5,0-0.8,0.2-0.9,0.6
		l-0.6,2.3h-1.7l0.4-2.3c0.1-0.4-0.1-0.6-0.6-0.6c-0.4,0-0.7,0.2-0.8,0.6l-0.5,2.3h-1.7l0.4-2.3c0.1-0.4-0.1-0.6-0.7-0.6
		c-0.5,0-0.9,0.6-1.1,1.7c-0.2,0.9,0,1.6,0.6,2.2c0.6,0.6,1.5,1.1,2.7,1.5c1.7,0.4,2.6,1.4,2.6,3H260c0-0.5-0.2-0.9-0.5-1.2
		c-0.3-0.4-0.8-0.5-1.5-0.6c-0.6,0-1.1,0.1-1.5,0.4c-0.5,0.2-0.9,0.6-1.4,1l-0.9-1.3c0.6-0.4,1.2-0.7,1.8-0.9
		c-1.6-0.9-2.3-2.2-1.9-4c0.4-2,1.5-3,3.3-3c0.7,0,1.2,0.2,1.6,0.7c0.5-0.5,1.1-0.7,1.8-0.7c0.7,0,1.2,0.2,1.5,0.7
		c0.5-0.4,1.1-0.7,1.8-0.7C265.9,68.2,266.6,69.2,266.2,71 M252.8,71.8c-0.5,2.3-1.7,3.5-3.6,3.5c-1.9,0-2.7-1.2-2.2-3.5
		c0.2-1,0.6-1.8,1.1-2.3c0.5-0.6,1.2-1,2-1.2c0.1-0.2,0.2-0.4,0.2-0.6c0.1-0.4,0-0.7-0.3-0.9c-0.6-0.5-0.8-1.1-0.6-1.9h1.9
		c-0.1,0.4,0.1,0.8,0.4,1.2c0.3,0.5,0.4,1,0.3,1.4c-0.1,0.3-0.2,0.5-0.3,0.8C252.8,69,253.1,70.1,252.8,71.8 M250.8,71.8
		c0.3-1.5,0.2-2.2-0.5-2.3c-0.7,0.1-1.2,0.9-1.5,2.3c-0.3,1.4-0.1,2.2,0.5,2.2C250.1,74,250.5,73.2,250.8,71.8 M245,75.3
		c-0.4,1.8-1.5,2.7-3.3,2.7c-2,0-2.8-0.9-2.4-2.7l0.5-1.5h1.9l-0.5,1.8c-0.1,0.7,0.1,1,0.8,1c0.6,0,0.9-0.3,1.1-1l1.2-5.6
		c0.1-0.3-0.1-0.4-0.3-0.4c-0.3,0-0.5,0.2-0.6,0.5l-0.5,2.2h-1.5l0.4-2.2c0.1-0.3-0.1-0.4-0.3-0.4h-0.4l-0.9-0.4l0.6-1.6l0.9,0.6
		h0.5c0.3,0,0.5,0.2,0.7,0.6c0.4-0.4,1-0.6,1.8-0.6c1.3,0,1.9,0.7,1.6,2L245,75.3z M238.6,72c-0.5,2.2-1.7,3.4-3.5,3.4
		c-1.9,0-2.6-1-2.2-3l0.4-1.4h1.9l-0.4,1.4c-0.2,1.1,0,1.6,0.6,1.6c0.6,0,1.1-0.7,1.3-2c0.3-1.2,0.2-1.8-0.3-1.8H235l0.3-1.4h1.1
		c0.5,0,0.9-0.2,0.9-0.7c0.1-0.5-0.1-0.9-0.7-1.3c-0.6-0.4-0.7-1-0.6-1.8h2c-0.1,0.4,0.1,0.9,0.6,1.2c0.5,0.4,0.7,0.9,0.5,1.6
		c-0.1,0.6-0.5,1.1-1.2,1.4C238.6,69.9,238.8,70.8,238.6,72 M231.7,72.1c-0.4,2.1-1.6,3.2-3.4,3.2c-1.9,0-2.6-1.1-2.2-3.3l1.5-7h1.9
		l-1.6,7.3c-0.2,1.1,0,1.6,0.7,1.6c0.6,0,1-0.5,1.2-1.5c0.2-1,0.2-1.7,0-2.1c-0.2-0.4-0.3-0.9-0.1-1.4l0.3-1.2h2l-0.5,1.2
		c-0.1,0.5,0,0.9,0.2,1.5C231.8,70.9,231.8,71.5,231.7,72.1 M224,75.3c-0.4,1.8-1.5,2.7-3.2,2.7c-1.9,0-2.7-0.9-2.3-2.7l0.6-1.6h1.9
		l-0.6,1.8c-0.1,0.7,0.1,1,0.7,1c0.5,0,0.9-0.3,1-1l1.1-5.1c0.1-0.6-0.1-0.9-0.6-0.9c-0.5,0-0.7,0.3-0.8,0.8l-0.1,1.8h-1.9l0.1-1.4
		c0.4-1.7,1.4-2.5,3.1-2.5c1.8,0,2.5,0.8,2.1,2.5L224,75.3z M218,71.5c-0.2,1.1-0.9,2.3-2,3.6h-2.4c1.4-1.2,2.3-2.4,2.5-3.6
		c0.3-1.3,0.1-1.9-0.4-1.9c-0.5,0-0.9,0.6-1.2,1.7l-0.3,1.4h-1.8l0.3-1.4c0.2-1.1,0.1-1.7-0.4-1.7c-0.6,0-1,0.6-1.3,1.9
		c-0.2,1.1,0.1,2.3,1,3.6h-2.5c-0.5-1.3-0.6-2.5-0.4-3.6c0.2-0.8,0.4-1.5,0.9-2.2s0.9-1.4,1.6-2.1c1.3-1.3,3-2.1,5.2-2.4l-0.3,1.6
		c-0.7,0-1.3,0.2-2,0.5c-0.7,0.3-1.3,0.7-1.9,1.3h0c0.8,0,1.4,0.3,1.7,0.8c0.5-0.5,1.2-0.8,2-0.8C217.8,68.2,218.5,69.3,218,71.5
		 M203.5,71.6c-0.2,1-0.7,2.2-1.4,3.6h-2c0.7-1.3,1.2-2.5,1.5-3.6c0.3-1.3,0.1-2-0.5-2c-0.6,0-1.1,0.7-1.4,2c-0.2,1.1-0.2,2.3,0,3.5
		h-2c-0.1-0.7-0.1-1.3-0.1-1.9c0-0.6,0.1-1.2,0.2-1.7c0.5-2.2,1.7-3.3,3.6-3.3C203.3,68.2,204,69.4,203.5,71.6 M196.7,71
		c-0.1,0.5-0.3,1.1-0.7,1.6c-0.3,0.5-0.8,1.1-1.3,1.7h-2.3c1.3-1.2,2.1-2.3,2.3-3.2c0.2-0.9,0-1.4-0.5-1.4c-0.5,0-0.8,0.2-0.9,0.6
		l-0.6,2.3h-1.7l0.4-2.3c0.1-0.4-0.1-0.6-0.6-0.6c-0.4,0-0.7,0.2-0.8,0.6l-0.5,2.3h-1.7l0.4-2.3c0.1-0.4-0.1-0.6-0.7-0.6
		c-0.5,0-0.9,0.6-1.1,1.7c-0.2,0.9,0,1.6,0.6,2.2c0.6,0.6,1.5,1.1,2.7,1.5c1.7,0.4,2.6,1.4,2.6,3h-1.9c0-0.5-0.2-0.9-0.5-1.2
		c-0.3-0.4-0.8-0.5-1.5-0.6c-0.6,0-1.1,0.1-1.5,0.4c-0.5,0.2-0.9,0.6-1.4,1l-0.9-1.3c0.6-0.4,1.2-0.7,1.8-0.9
		c-1.6-0.9-2.3-2.2-1.9-4c0.4-2,1.5-3,3.3-3c0.7,0,1.2,0.2,1.6,0.7c0.5-0.5,1.1-0.7,1.8-0.7c0.7,0,1.2,0.2,1.5,0.7
		c0.5-0.4,1.1-0.7,1.8-0.7C196.4,68.2,197.1,69.2,196.7,71 M182.4,75.3c-0.4,1.8-1.5,2.7-3.3,2.7c-2,0-2.8-0.9-2.4-2.7l0.5-1.5h1.9
		l-0.5,1.8c-0.1,0.7,0.1,1,0.8,1c0.6,0,0.9-0.3,1.1-1l1.2-5.6c0.1-0.3-0.1-0.4-0.3-0.4c-0.3,0-0.5,0.2-0.6,0.5l-0.5,2.2h-1.5
		l0.4-2.2c0.1-0.3-0.1-0.4-0.3-0.4h-0.4l-0.9-0.4l0.6-1.6l0.9,0.6h0.5c0.3,0,0.5,0.2,0.7,0.6c0.4-0.4,1-0.6,1.8-0.6
		c1.3,0,1.9,0.7,1.6,2L182.4,75.3z M176.1,71.6c-0.2,1-0.7,2.2-1.4,3.6h-2c0.7-1.3,1.2-2.5,1.5-3.6c0.3-1.3,0.1-2-0.5-2
		c-0.6,0-1.1,0.7-1.4,2c-0.2,1.1-0.2,2.3,0,3.5h-2c-0.1-0.7-0.1-1.3-0.1-1.9c0-0.6,0.1-1.2,0.2-1.7c0.5-2.2,1.7-3.3,3.6-3.3
		C175.8,68.2,176.6,69.4,176.1,71.6 M161.3,73.2c0.6-2.7,2-4.2,4.2-4.7l-0.1-1.6h2l-0.8,1.6c1.1,0.2,1.8,0.8,2.1,1.6
		c0.3,0.8,0.3,1.9,0,3.2c-0.1,0.6-0.3,1.2-0.6,1.7c-0.3,0.5-0.7,1.2-1.4,1.9c-0.6,0.7-1.5,1.1-2.7,1.1c-1.2,0-2-0.5-2.5-1.4
		C161.2,75.6,161.1,74.5,161.3,73.2 M163.3,73.2c-0.3,1.5-0.3,2.4-0.1,2.8c0.3,0.4,0.7,0.6,1.2,0.6c0.5,0,0.9-0.2,1.4-0.6
		c0.5-0.4,0.9-1.3,1.2-2.8c0.2-1,0.3-1.7,0.3-2.1c0-0.5-0.3-0.8-0.9-1.2l-0.3,3.2h-1.9l1.1-3.2c-0.7,0.3-1.2,0.7-1.4,1.1
		C163.7,71.5,163.5,72.2,163.3,73.2 M160.3,72.5c-0.4,1.9-1.6,2.9-3.4,2.9c-1.9,0-2.6-1-2.2-2.9l0.5-1.3h1.9l-0.5,1.3
		c-0.2,1,0,1.5,0.6,1.5c0.6,0,1-0.5,1.2-1.5c0.2-0.7-0.1-1.5-0.6-2.1c-0.6-0.7-0.8-1.5-0.6-2.6h2c-0.2,0.8,0.1,1.5,0.6,2.2
		C160.3,70.6,160.5,71.4,160.3,72.5 M153.6,71.5c-0.2,1.1-0.9,2.3-2,3.6h-2.4c1.4-1.2,2.3-2.4,2.5-3.6c0.3-1.3,0.1-1.9-0.4-1.9
		c-0.5,0-0.9,0.6-1.2,1.7l-0.3,1.4H148l0.3-1.4c0.2-1.1,0.1-1.7-0.4-1.7c-0.6,0-1,0.6-1.3,1.9c-0.2,1.1,0.1,2.3,1,3.6h-2.5
		c-0.5-1.3-0.6-2.5-0.4-3.6c0.2-0.8,0.4-1.5,0.9-2.2c0.4-0.7,0.9-1.4,1.6-2.1c1.3-1.3,3-2.1,5.2-2.4l-0.3,1.6c-0.7,0-1.3,0.2-2,0.5
		c-0.7,0.3-1.3,0.7-1.9,1.3h0c0.8,0,1.4,0.3,1.7,0.8c0.5-0.5,1.2-0.8,2-0.8C153.4,68.2,154.1,69.3,153.6,71.5 M142.6,75.3
		c-0.2,0.9-0.5,1.6-1.1,2c-0.5,0.4-1.3,0.7-2.2,0.7c-2,0-2.8-0.9-2.4-2.6l0.5-1.4h1.9l-0.5,1.4c-0.2,0.8,0.1,1.3,0.8,1.3
		c0.5,0,0.9-0.4,1.1-1.3l0.2-0.9c0.2-0.8,0-1.1-0.6-1.1H139l0.3-1.4h0.8c0.9-0.2,1.4-0.6,1.6-1.2c0.1-0.6-0.2-1.4-0.9-2.3h2.4
		c0.4,0.8,0.5,1.5,0.4,2.3c-0.2,0.7-0.6,1.3-1.4,1.7c0.7,0.4,0.9,1.1,0.7,2L142.6,75.3z M136.6,71.5c-0.2,1.2-0.9,2.4-2,3.7h-2.3
		c1.3-1.3,2.1-2.5,2.3-3.7c0.3-1.3,0.1-1.9-0.3-1.9c-0.6,0-0.9,0.3-1,0.9l-0.4,1.8h-1.8l0.4-1.8c0.1-0.6-0.1-0.9-0.7-0.9
		c-0.5,0-0.9,0.6-1.1,1.9c-0.2,1.1,0,2.3,0.8,3.7h-2.3c-0.5-1.2-0.7-2.5-0.4-3.7c0.5-2.2,1.6-3.2,3.4-3.2c0.8,0,1.3,0.2,1.6,0.7
		c0.5-0.5,1.2-0.7,1.9-0.7C136.4,68.2,137,69.3,136.6,71.5 M126.2,72.3c-0.4,2-1.5,3-3.3,3c-2,0-2.7-1.2-2.2-3.5
		c0.5-2.2,1.7-3.4,3.7-3.4c0.3,0,0.5,0,0.8,0.1l0.3-1.4c0.1-0.6,0-0.9-0.5-0.9c-0.5,0-0.8,0.3-1,0.8l-0.1,0.3H122l0.1-0.3
		c0.3-1.5,1.4-2.2,3.2-2.2c1.7,0,2.4,0.8,2.1,2.3L126.2,72.3z M124.9,69.9c-0.2-0.1-0.5-0.2-0.7-0.2c-0.4,0-0.7,0.2-0.9,0.5
		c-0.3,0.3-0.5,0.8-0.6,1.5c-0.3,1.4-0.1,2.2,0.6,2.2c0.6,0,1-0.6,1.2-1.7L124.9,69.9z M118.7,75.3c-0.4,1.8-1.5,2.7-3.2,2.7
		c-1.9,0-2.7-0.9-2.3-2.7l0.6-1.6h1.9l-0.6,1.8c-0.2,0.7,0.1,1,0.7,1c0.5,0,0.9-0.3,1-1l1.1-5.1c0.1-0.6-0.1-0.9-0.6-0.9
		c-0.5,0-0.7,0.3-0.8,0.8l-0.1,1.8h-1.9l0.1-1.4c0.4-1.7,1.4-2.5,3.1-2.5c1.8,0,2.5,0.8,2.1,2.5L118.7,75.3z M112.7,71.6
		c-0.5,2.2-1.7,3.3-3.5,3.3c-1.9,0-2.7-1.1-2.2-3.4c0.1-0.6,0.3-1,0.4-1.3c0.1-0.4-0.1-0.7-0.6-0.7c-0.6,0-1.1,0.6-1.3,1.8
		c-0.4,1.8-0.1,3,0.9,3.7c2.1,0.8,3.1,1.8,2.9,2.9h-2c0.1-0.3-0.1-0.6-0.4-1c-0.3-0.3-0.7-0.5-1.3-0.5c-0.4,0-0.9,0.4-1.6,1.2
		l-1.1-1.2c0.5-0.5,1.1-0.8,1.6-1c-0.5-0.5-0.8-1.1-1-1.8c-0.2-0.7-0.1-1.4,0-2.3c0.4-2.1,1.6-3.2,3.3-3.2c0.7,0,1.2,0.3,1.4,0.7
		c0.6-0.5,1.3-0.8,2.2-0.8C112.5,68.2,113.2,69.4,112.7,71.6 M110.8,71.6c0.3-1.3,0.1-2-0.5-2c-0.7,0-1.2,0.7-1.5,2
		c-0.3,1.4-0.1,2.1,0.6,2.1C110.1,73.6,110.5,72.9,110.8,71.6 M256.7,57.2c-0.2,1-0.7,2.2-1.4,3.6h-2c0.7-1.3,1.2-2.5,1.5-3.6
		c0.3-1.3,0.1-2-0.5-2c-0.6,0-1.1,0.7-1.4,2c-0.2,1.1-0.2,2.3,0,3.5h-2c-0.1-0.7-0.1-1.3-0.1-1.9c0-0.6,0.1-1.2,0.2-1.7
		c0.5-2.2,1.7-3.3,3.6-3.3C256.4,53.9,257.1,55,256.7,57.2 M249.8,56.6c-0.1,0.5-0.3,1.1-0.7,1.6c-0.3,0.5-0.8,1.1-1.3,1.7h-2.3
		c1.4-1.2,2.1-2.3,2.3-3.2c0.2-0.9,0-1.4-0.5-1.4c-0.5,0-0.8,0.2-0.9,0.6l-0.6,2.3h-1.7l0.4-2.3c0.1-0.4-0.1-0.6-0.6-0.6
		c-0.4,0-0.7,0.2-0.8,0.6l-0.5,2.3H241l0.4-2.3c0.1-0.4-0.1-0.6-0.7-0.6c-0.5,0-0.9,0.6-1.1,1.7c-0.2,0.9,0,1.6,0.6,2.2
		c0.6,0.6,1.5,1.1,2.7,1.5c1.7,0.4,2.6,1.4,2.6,3h-1.9c0-0.5-0.2-0.9-0.5-1.2c-0.3-0.4-0.9-0.5-1.5-0.6c-0.6,0-1.1,0.1-1.5,0.4
		c-0.5,0.2-0.9,0.6-1.4,1l-0.9-1.3c0.6-0.4,1.2-0.7,1.8-0.9c-1.6-0.9-2.3-2.2-1.9-4c0.4-2,1.5-3,3.3-3c0.7,0,1.2,0.2,1.6,0.7
		c0.5-0.5,1.1-0.7,1.8-0.7c0.7,0,1.2,0.2,1.5,0.7c0.5-0.4,1.1-0.7,1.8-0.7C249.5,53.9,250.2,54.8,249.8,56.6 M235.5,60.9
		c-0.4,1.8-1.5,2.7-3.2,2.7c-1.9,0-2.7-0.9-2.3-2.7l0.6-1.6h1.9l-0.6,1.8c-0.2,0.7,0.1,1,0.7,1c0.5,0,0.9-0.3,1-1l1.1-5.1
		c0.1-0.6-0.1-0.9-0.6-0.9c-0.5,0-0.7,0.3-0.8,0.8l-0.1,1.8h-1.9l0.1-1.4c0.4-1.7,1.4-2.5,3.1-2.5c1.8,0,2.5,0.8,2.1,2.5L235.5,60.9
		z M228.7,60.9c-0.4,1.8-1.5,2.7-3.3,2.7c-2,0-2.7-0.9-2.4-2.7l0.4-1.3h1.9l-0.5,1.6c-0.1,0.6,0.1,1,0.7,1c0.6,0,1-0.3,1.1-0.9
		l0.2-1.1c0.2-0.8,0.1-1.2-0.3-1.2h-1.2l0.3-1.4h0.9c0.5,0,0.9-0.6,1.2-1.7c0.1-0.4-0.2-0.6-0.7-0.6c-0.5,0-0.7,0.3-0.8,0.8
		l-0.1,0.9h-1.9l0.1-0.8c0.3-1.5,1.3-2.2,3-2.2c1.9,0,2.6,0.8,2.3,2.3c-0.2,0.7-0.7,1.4-1.6,2c0.7,0.3,1,1,0.8,2.1L228.7,60.9z
		 M222.7,57.1c-0.2,1.1-0.9,2.3-2,3.6h-2.4c1.4-1.2,2.3-2.4,2.5-3.6c0.3-1.3,0.1-1.9-0.4-1.9c-0.5,0-0.9,0.6-1.2,1.7l-0.3,1.4H217
		l0.3-1.4c0.2-1.1,0.1-1.7-0.4-1.7c-0.6,0-1,0.6-1.3,1.9c-0.2,1.1,0.1,2.3,1,3.6h-2.5c-0.5-1.3-0.6-2.5-0.4-3.6
		c0.2-0.8,0.4-1.5,0.9-2.2c0.4-0.7,0.9-1.4,1.6-2.1c1.3-1.3,3-2.1,5.2-2.4L221,52c-0.7,0-1.3,0.2-2,0.5c-0.7,0.3-1.3,0.7-1.9,1.3h0
		c0.8,0,1.4,0.3,1.7,0.8c0.5-0.5,1.2-0.8,2-0.8C222.5,53.9,223.2,55,222.7,57.1 M212.5,57.2c-0.2,1-0.7,2.2-1.4,3.6h-2
		c0.7-1.3,1.2-2.5,1.5-3.6c0.3-1.3,0.1-2-0.5-2c-0.6,0-1.1,0.7-1.4,2c-0.2,1.1-0.2,2.3,0,3.5h-2c-0.1-0.7-0.1-1.3-0.1-1.9
		c0-0.6,0.1-1.2,0.2-1.7c0.5-2.2,1.7-3.3,3.6-3.3C212.3,53.9,213,55,212.5,57.2 M205.5,57.6c-0.5,2.2-1.7,3.4-3.5,3.4
		c-1.9,0-2.6-1-2.2-3l0.4-1.4h1.9l-0.4,1.4c-0.2,1.1,0,1.6,0.6,1.6c0.6,0,1.1-0.7,1.3-2c0.3-1.2,0.2-1.8-0.3-1.8h-1.3l0.3-1.4h1.1
		c0.5,0,0.9-0.2,0.9-0.7c0.1-0.5-0.1-0.9-0.7-1.3c-0.6-0.4-0.7-1-0.6-1.8h2c-0.1,0.4,0.1,0.9,0.6,1.2c0.5,0.4,0.7,0.9,0.5,1.6
		c-0.1,0.6-0.5,1.1-1.2,1.4C205.5,55.5,205.7,56.4,205.5,57.6 M194.3,57.7c-0.4,2.1-1.6,3.2-3.4,3.2c-1.9,0-2.6-1.1-2.2-3.3l1.5-7
		h1.9l-1.6,7.3c-0.2,1.1,0,1.6,0.7,1.6c0.6,0,1-0.5,1.2-1.5c0.2-1,0.2-1.7,0-2.1c-0.2-0.4-0.3-0.9-0.1-1.4l0.3-1.2h2l-0.5,1.2
		c-0.1,0.5,0,1,0.2,1.5C194.4,56.5,194.4,57.1,194.3,57.7 M187.4,57.1c-0.2,1.2-0.9,2.4-2,3.7h-2.3c1.3-1.3,2.1-2.5,2.3-3.7
		c0.3-1.3,0.1-1.9-0.3-1.9c-0.6,0-0.9,0.3-1,0.9l-0.4,1.8h-1.8l0.4-1.8c0.1-0.6-0.1-0.9-0.7-0.9c-0.5,0-0.9,0.6-1.1,1.9
		c-0.2,1.1,0,2.3,0.8,3.7H179c-0.5-1.2-0.7-2.5-0.4-3.7c0.5-2.2,1.6-3.2,3.4-3.2c0.8,0,1.3,0.2,1.6,0.7c0.5-0.5,1.2-0.7,1.9-0.7
		C187.2,53.9,187.9,54.9,187.4,57.1 M177.5,56.6c-0.1,0.5-0.3,1.1-0.7,1.6c-0.3,0.5-0.8,1.1-1.3,1.7h-2.3c1.4-1.2,2.1-2.3,2.3-3.2
		c0.2-0.9,0-1.4-0.5-1.4c-0.5,0-0.8,0.2-0.9,0.6l-0.6,2.3h-1.7l0.4-2.3c0.1-0.4-0.1-0.6-0.6-0.6c-0.4,0-0.7,0.2-0.8,0.6l-0.5,2.3
		h-1.7l0.4-2.3c0.1-0.4-0.1-0.6-0.7-0.6c-0.5,0-0.9,0.6-1.1,1.7c-0.2,0.9,0,1.6,0.6,2.2c0.6,0.6,1.5,1.1,2.7,1.5
		c1.7,0.4,2.6,1.4,2.6,3h-1.9c0-0.5-0.2-0.9-0.5-1.2c-0.3-0.4-0.8-0.5-1.5-0.6c-0.6,0-1.1,0.1-1.5,0.4c-0.5,0.2-0.9,0.6-1.4,1
		l-0.9-1.3c0.6-0.4,1.2-0.7,1.8-0.9c-1.6-0.9-2.3-2.2-1.9-4c0.4-2,1.5-3,3.3-3c0.7,0,1.2,0.2,1.6,0.7c0.5-0.5,1.1-0.7,1.8-0.7
		c0.7,0,1.2,0.2,1.5,0.7c0.5-0.4,1.1-0.7,1.8-0.7C177.2,53.9,177.9,54.8,177.5,56.6 M163.2,60.9c-0.4,1.8-1.5,2.7-3.2,2.7
		c-1.9,0-2.7-0.9-2.3-2.7l0.6-1.6h1.9l-0.6,1.8c-0.2,0.7,0.1,1,0.7,1c0.5,0,0.9-0.3,1-1l1.1-5.1c0.1-0.6-0.1-0.9-0.6-0.9
		c-0.5,0-0.7,0.3-0.8,0.8l-0.1,1.8h-1.9l0.1-1.4c0.4-1.7,1.4-2.5,3-2.5c1.8,0,2.5,0.8,2.1,2.5L163.2,60.9z M156.4,60.9
		c-0.4,1.8-1.5,2.7-3.3,2.7c-2,0-2.7-0.9-2.4-2.7l0.4-1.3h1.9l-0.5,1.6c-0.1,0.6,0.1,1,0.7,1c0.6,0,1-0.3,1.1-0.9l0.2-1.1
		c0.2-0.8,0.1-1.2-0.3-1.2h-1.2l0.3-1.4h0.9c0.5,0,0.9-0.6,1.2-1.7c0.1-0.4-0.2-0.6-0.7-0.6c-0.4,0-0.7,0.3-0.8,0.8l-0.1,0.9H152
		l0.1-0.8c0.3-1.5,1.3-2.2,3-2.2c1.9,0,2.6,0.8,2.3,2.3c-0.2,0.7-0.7,1.4-1.6,2c0.7,0.3,1,1,0.8,2.1L156.4,60.9z M141.3,57.5
		c0.5-2.4,1.7-3.7,3.6-3.7c0.4,0,0.8,0.1,1.1,0.2c0.3,0.1,0.6,0.3,0.7,0.5c0.5-0.5,1.1-0.7,1.7-0.7c1.8,0,2.5,1.1,2,3.3
		c-0.3,1.2-1,2.5-2.3,3.7h-2.3c1.5-1.3,2.4-2.5,2.7-3.7c0.3-1.3,0.1-2-0.4-2c-0.3,0-0.6,0.3-0.9,0.8c0,0.4-0.1,0.9-0.2,1.5
		c-0.6,2.3-1.8,3.4-3.6,3.4C141.5,60.9,140.8,59.8,141.3,57.5 M145,57.5c0.3-1.5,0.2-2.3-0.4-2.3c-0.6,0-1.1,0.8-1.4,2.3
		c-0.3,1.4-0.1,2,0.4,2C144.2,59.6,144.7,58.9,145,57.5 M140.1,57.1c-0.2,1.1-0.9,2.3-2,3.6h-2.4c1.4-1.2,2.3-2.4,2.5-3.6
		c0.3-1.3,0.1-1.9-0.4-1.9c-0.5,0-0.9,0.6-1.2,1.7l-0.3,1.4h-1.8l0.3-1.4c0.2-1.1,0.1-1.7-0.4-1.7c-0.6,0-1,0.6-1.3,1.9
		c-0.2,1.1,0.1,2.3,1,3.6h-2.5c-0.5-1.3-0.6-2.5-0.4-3.6c0.2-0.8,0.4-1.5,0.9-2.2c0.4-0.7,0.9-1.4,1.6-2.1c1.3-1.3,3-2.1,5.2-2.4
		l-0.3,1.6c-0.7,0-1.3,0.2-2,0.5c-0.7,0.3-1.3,0.7-1.9,1.3h0c0.8,0,1.4,0.3,1.7,0.8c0.5-0.5,1.2-0.8,2-0.8
		C139.9,53.9,140.6,55,140.1,57.1 M129.8,58.1c-0.4,1.9-1.6,2.9-3.4,2.9c-1.9,0-2.6-1-2.2-2.9l0.5-1.3h1.9L126,58
		c-0.2,1,0,1.5,0.6,1.5c0.6,0,1-0.5,1.2-1.5c0.2-0.7-0.1-1.5-0.7-2.1c-0.6-0.7-0.8-1.5-0.6-2.6h2c-0.2,0.8,0.1,1.5,0.6,2.2
		C129.8,56.2,130,57,129.8,58.1 M122.2,60.9c-0.4,1.8-1.5,2.7-3.2,2.7c-1.9,0-2.7-0.9-2.3-2.7l0.6-1.6h1.9l-0.6,1.8
		c-0.1,0.7,0.1,1.1,0.7,1.1c0.5,0,0.9-0.4,1-1.1l1.2-5.7c-0.3-0.2-0.7-0.3-1.1-0.3c-0.3,0-0.5,0.3-0.6,0.8l-0.1,1.6h-1.9l0.1-1.3
		c0.3-1.6,1.3-2.4,2.8-2.4c0.4,0,0.8,0.1,1.1,0.2l0.7-3.5h1.9L122.2,60.9z M116,58.1c-0.4,1.9-1.6,2.9-3.4,2.9c-1.9,0-2.6-1-2.2-2.9
		l0.5-1.3h1.9l-0.5,1.3c-0.2,1,0,1.5,0.6,1.5c0.6,0,1-0.5,1.2-1.5c0.2-0.7-0.1-1.5-0.6-2.1c-0.6-0.7-0.8-1.5-0.6-2.6h2
		c-0.2,0.8,0.1,1.5,0.6,2.2C116.1,56.2,116.3,57,116,58.1 M109.3,57.7c-0.4,2.1-1.6,3.2-3.4,3.2c-1.9,0-2.6-1.1-2.2-3.3l1.5-7h1.9
		l-1.6,7.3c-0.2,1.1,0,1.6,0.7,1.6c0.6,0,1-0.5,1.2-1.5c0.2-1,0.2-1.7,0-2.1c-0.2-0.4-0.3-0.9-0.1-1.4l0.3-1.2h2l-0.5,1.2
		c-0.1,0.5,0,1,0.2,1.5C109.4,56.5,109.4,57.1,109.3,57.7"/>
	<path class="st0" d="M188.4,86.2c-0.5,2.3-1.7,3.5-3.6,3.5c-1.8,0-2.5-1-2.1-3.1l1.1-5c0.3-1.5,1.3-2.2,2.8-2.2h2.8l-0.3,1.5h-2.7
		c-0.4,0-0.6,0.2-0.7,0.5l-0.4,1.6c0.4-0.1,0.8-0.2,1.2-0.2C188.2,82.8,188.9,83.9,188.4,86.2 M186.5,86.2c0.3-1.4,0.1-2-0.5-2
		c-0.3,0-0.6,0.1-1,0.2l-0.5,2.1c-0.3,1.2-0.1,1.8,0.5,1.8C185.7,88.4,186.2,87.6,186.5,86.2 M181.3,86.8c-0.4,1.9-1.6,2.9-3.4,2.9
		c-1.9,0-2.6-1-2.2-2.9l0.5-1.3h1.9l-0.5,1.3c-0.2,1,0,1.5,0.6,1.5c0.6,0,1-0.5,1.2-1.5c0.2-0.7-0.1-1.5-0.6-2.1
		c-0.6-0.7-0.8-1.5-0.6-2.6h2c-0.2,0.8,0.1,1.5,0.6,2.2C181.3,85,181.5,85.8,181.3,86.8 M174.6,86c-0.5,2.2-1.7,3.3-3.5,3.3
		c-1.9,0-2.7-1.1-2.2-3.4c0.1-0.6,0.3-1,0.4-1.3c0.1-0.4-0.1-0.7-0.6-0.7c-0.6,0-1.1,0.6-1.3,1.8c-0.4,1.8-0.1,3,0.9,3.7
		c2.1,0.8,3.1,1.8,2.9,2.9h-2c0-0.3-0.1-0.6-0.4-1c-0.3-0.3-0.7-0.5-1.3-0.5c-0.4,0-0.9,0.4-1.6,1.2l-1.1-1.2c0.5-0.5,1.1-0.8,1.6-1
		c-0.5-0.5-0.8-1.1-1-1.8c-0.2-0.7-0.1-1.4,0-2.3c0.4-2.1,1.6-3.2,3.3-3.2c0.7,0,1.2,0.3,1.4,0.7c0.6-0.5,1.3-0.8,2.2-0.8
		C174.4,82.6,175.1,83.8,174.6,86 M172.7,86c0.3-1.3,0.1-2-0.5-2c-0.7,0-1.2,0.7-1.5,2c-0.3,1.4-0.1,2.1,0.6,2.1
		C172,88,172.4,87.3,172.7,86 M164.3,86c-0.2,1-0.7,2.2-1.4,3.6h-2c0.7-1.3,1.2-2.5,1.5-3.6c0.3-1.3,0.1-2-0.5-2
		c-0.6,0-1.1,0.7-1.4,2c-0.2,1.1-0.2,2.3,0,3.5h-2c-0.1-0.7-0.1-1.3-0.1-1.9c0-0.6,0.1-1.2,0.2-1.7c0.5-2.2,1.7-3.3,3.6-3.3
		C164.1,82.6,164.8,83.8,164.3,86 M157.3,86.2c-0.5,2.3-1.7,3.5-3.6,3.5c-1.9,0-2.7-1.2-2.2-3.5c0.2-1,0.6-1.8,1.1-2.3
		c0.5-0.6,1.2-1,2-1.2c0.1-0.2,0.2-0.4,0.2-0.6c0.1-0.4,0-0.7-0.3-0.9c-0.6-0.5-0.8-1.1-0.6-1.9h1.9c-0.1,0.4,0.1,0.8,0.4,1.2
		c0.3,0.5,0.4,1,0.4,1.4c-0.1,0.3-0.2,0.5-0.3,0.8C157.3,83.4,157.7,84.5,157.3,86.2 M155.4,86.2c0.3-1.5,0.2-2.2-0.5-2.3
		c-0.7,0.1-1.2,0.8-1.5,2.3c-0.3,1.4-0.1,2.2,0.5,2.2C154.6,88.4,155.1,87.6,155.4,86.2 M149.5,89.7c-0.4,1.8-1.5,2.7-3.2,2.7
		c-1.9,0-2.7-0.9-2.3-2.7l0.6-1.6h1.9l-0.6,1.8c-0.2,0.7,0.1,1,0.7,1c0.5,0,0.9-0.3,1-1l1.1-5.1c0.1-0.6-0.1-0.9-0.6-0.9
		c-0.5,0-0.7,0.3-0.8,0.8l-0.1,1.8h-1.9l0.1-1.4c0.4-1.7,1.4-2.5,3.1-2.5c1.8,0,2.5,0.8,2.1,2.5L149.5,89.7z M143.5,86.5
		c-0.4,2.1-1.6,3.2-3.4,3.2c-1.9,0-2.6-1.1-2.2-3.3l1.5-7h1.9l-1.6,7.3c-0.2,1.1,0,1.6,0.7,1.6c0.6,0,1-0.5,1.2-1.5
		c0.2-1,0.2-1.7,0-2.1c-0.2-0.4-0.3-0.9-0.1-1.4l0.3-1.2h2l-0.5,1.2c-0.1,0.5,0,0.9,0.2,1.5C143.6,85.3,143.6,85.9,143.5,86.5
		 M136.6,85.9c-0.2,1.1-0.9,2.3-2,3.6h-2.4c1.4-1.2,2.3-2.4,2.5-3.6c0.3-1.3,0.1-1.9-0.4-1.9c-0.5,0-0.9,0.6-1.2,1.7l-0.3,1.4H131
		l0.3-1.4c0.2-1.1,0.1-1.7-0.4-1.7c-0.6,0-1,0.6-1.3,1.9c-0.2,1.1,0.1,2.3,1,3.6H128c-0.5-1.3-0.6-2.5-0.4-3.6
		c0.2-0.8,0.5-1.5,0.9-2.2c0.4-0.7,0.9-1.4,1.6-2.1c1.3-1.3,3-2.1,5.2-2.4l-0.3,1.6c-0.7,0-1.3,0.2-2,0.5c-0.7,0.3-1.3,0.7-1.9,1.3
		h0c0.8,0,1.4,0.3,1.7,0.8c0.5-0.5,1.2-0.8,2-0.8C136.4,82.6,137.1,83.7,136.6,85.9 M126.2,86.8c-0.4,1.9-1.6,2.9-3.4,2.9
		c-1.9,0-2.6-1-2.2-2.9l0.5-1.3h1.9l-0.5,1.3c-0.2,1,0,1.5,0.6,1.5c0.6,0,1-0.5,1.2-1.5c0.2-0.7-0.1-1.5-0.6-2.1
		c-0.6-0.7-0.8-1.5-0.6-2.6h2c-0.2,0.8,0.1,1.5,0.6,2.2C126.3,85,126.5,85.8,126.2,86.8 M119.4,86.8c-0.4,1.9-1.6,2.9-3.4,2.9
		c-1.9,0-2.6-1-2.2-2.9l0.5-1.3h1.9l-0.5,1.3c-0.2,1,0,1.5,0.6,1.5c0.6,0,1-0.5,1.2-1.5c0.2-0.7-0.1-1.5-0.6-2.1
		c-0.6-0.7-0.8-1.5-0.6-2.6h2c-0.2,0.8,0.1,1.5,0.6,2.2C119.4,85,119.6,85.8,119.4,86.8 M112.7,86c-0.5,2.2-1.7,3.3-3.5,3.3
		c-1.9,0-2.7-1.1-2.2-3.4c0.1-0.6,0.3-1,0.4-1.3c0.1-0.4-0.1-0.7-0.6-0.7c-0.6,0-1.1,0.6-1.3,1.8c-0.4,1.8-0.1,3,0.9,3.7
		c2.1,0.8,3.1,1.8,2.9,2.9h-2c0-0.3-0.1-0.6-0.4-1c-0.3-0.3-0.7-0.5-1.3-0.5c-0.4,0-0.9,0.4-1.6,1.2l-1.1-1.2c0.5-0.5,1.1-0.8,1.6-1
		c-0.5-0.5-0.8-1.1-1-1.8c-0.2-0.7-0.1-1.4,0-2.3c0.4-2.1,1.6-3.2,3.3-3.2c0.7,0,1.2,0.3,1.4,0.7c0.6-0.5,1.3-0.8,2.2-0.8
		C112.5,82.6,113.2,83.8,112.7,86 M110.8,86c0.3-1.3,0.1-2-0.5-2c-0.7,0-1.2,0.7-1.5,2c-0.3,1.4-0.1,2.1,0.6,2.1
		C110.1,88,110.5,87.3,110.8,86 M293.8,72.1c-0.4,2.1-1.6,3.2-3.4,3.2c-1.9,0-2.6-1.1-2.2-3.3l1.5-7h1.9l-1.6,7.3
		c-0.2,1.1,0,1.6,0.7,1.6c0.6,0,1-0.5,1.2-1.5c0.2-1,0.2-1.7,0-2.1c-0.2-0.4-0.3-0.9-0.1-1.4l0.3-1.2h2l-0.5,1.2
		c-0.1,0.5,0,0.9,0.2,1.5C293.8,70.9,293.9,71.5,293.8,72.1 M286.9,71.6c-0.2,1-0.7,2.2-1.4,3.6h-2c0.7-1.3,1.2-2.5,1.5-3.6
		c0.3-1.3,0.1-2-0.5-2c-0.6,0-1.1,0.7-1.4,2c-0.2,1.1-0.2,2.3,0,3.5h-2c-0.1-0.7-0.1-1.3-0.1-1.9c0-0.6,0.1-1.2,0.2-1.7
		c0.5-2.2,1.7-3.3,3.6-3.3C286.7,68.2,287.4,69.4,286.9,71.6"/>
	<path class="st1" d="M111.7,22.1c2.4,0,4.6,1,6.1,2.5c1.6,1.6,2.5,3.7,2.5,6.1c0,2.4-1,4.5-2.5,6.1v0c-1.6,1.6-3.7,2.5-6.1,2.5
		c-2.4,0-4.5-1-6.1-2.5l0,0c-1.6-1.6-2.5-3.7-2.5-6.1l0,0V19.2c0-1.6,0.6-3.2,1.8-4.3c1.1-1.1,2.6-1.8,4.3-1.8
		c1.5,0,2.8,0.5,3.8,1.4c1-0.8,2.4-1.4,3.8-1.4h2.6v4.5h-2.6c-0.4,0-0.8,0.2-1.1,0.5c-0.3,0.3-0.5,0.7-0.5,1.1v1.3h-4.5v-1.3
		c0-0.4-0.2-0.8-0.5-1.1c-0.3-0.3-0.7-0.5-1.1-0.5c-0.4,0-0.8,0.2-1.1,0.5l0,0c-0.3,0.3-0.5,0.7-0.5,1.1v3.9
		C108.8,22.5,110.2,22.1,111.7,22.1 M129.3,30.7c0,1.1,0.5,2.2,1.2,2.9c0.7,0.7,1.8,1.2,2.9,1.2c1.1,0,2.2-0.5,2.9-1.2l0,0
		c0.7-0.7,1.2-1.8,1.2-2.9h0v-9h0c0-1.1-0.5-2.2-1.2-2.9c-0.7-0.7-1.8-1.2-2.9-1.2c-1.1,0-2.2,0.5-2.9,1.2l0,0
		c-0.8,0.7-1.2,1.8-1.2,2.9h-4.5c0-2.4,1-4.6,2.5-6.1h0c1.6-1.6,3.7-2.5,6.1-2.5c2.4,0,4.6,1,6.1,2.5c1.6,1.6,2.5,3.7,2.5,6.1h0v9h0
		c0,2.4-1,4.5-2.5,6.1v0c-1.6,1.6-3.7,2.5-6.1,2.5c-2.4,0-4.5-1-6.1-2.5l0,0c-1.6-1.6-2.5-3.7-2.5-6.1v-1.3h4.5V30.7z M191.5,23.8
		v-2c0-1.1-0.5-2.2-1.2-2.9c-0.8-0.7-1.8-1.2-2.9-1.2c-1.1,0-2.2,0.5-2.9,1.2l0,0c-0.7,0.7-1.2,1.8-1.2,2.9v17.6h-4.5V23.8v-2h0
		c0-2.4,1-4.6,2.5-6.1h0c1.6-1.6,3.7-2.5,6.1-2.5c2.4,0,4.6,1,6.1,2.5c1.6,1.6,2.5,3.7,2.5,6.1h0v17.6h-4.5V23.8z M151.1,30.7
		c0,1.1,0.5,2.2,1.2,2.9c0.7,0.7,1.8,1.2,2.9,1.2h8.7v4.5H157h-1.8c-2.4,0-4.5-1-6.1-2.5l0,0c-1.6-1.6-2.5-3.7-2.5-6.1h0V19.2
		c0-1.7,0.7-3.2,1.8-4.3h0c1.1-1.1,2.6-1.8,4.3-1.8c1.5,0,2.8,0.5,3.8,1.4c1-0.8,2.4-1.4,3.8-1.4c1.5,0,2.8,0.5,3.8,1.4
		c1-0.9,2.4-1.4,3.8-1.4c1.7,0,3.2,0.7,4.3,1.8l0,0c1.1,1.1,1.8,2.6,1.8,4.3h0v7.7h-4.5v-7.7h0c0-0.4-0.2-0.8-0.5-1.1
		c-0.3-0.3-0.7-0.5-1.1-0.5c-0.4,0-0.8,0.2-1.1,0.5c-0.3,0.3-0.5,0.7-0.5,1.1v5.1H162v-5.1c0-0.4-0.2-0.8-0.5-1.1
		c-0.3-0.3-0.7-0.5-1.1-0.5c-0.4,0-0.8,0.2-1.1,0.5c-0.3,0.3-0.5,0.7-0.5,1.1h0v5.1h-4.5v-5.1h0c0-0.4-0.2-0.8-0.5-1.1
		c-0.3-0.3-0.7-0.5-1.1-0.5c-0.4,0-0.8,0.2-1.1,0.5l0,0c-0.3,0.3-0.5,0.7-0.5,1.1V30.7z M114.6,27.8c-0.7-0.7-1.8-1.2-2.9-1.2
		c-1.1,0-2.2,0.5-2.9,1.2l0,0c-0.8,0.8-1.2,1.8-1.2,2.9c0,1.1,0.5,2.2,1.2,2.9c0.7,0.7,1.8,1.2,2.9,1.2c1.1,0,2.2-0.5,2.9-1.2l0,0
		c0.7-0.7,1.2-1.8,1.2-2.9C115.8,29.6,115.3,28.6,114.6,27.8"/>
	<path class="st1" d="M62.6,52.5c7.2,0,13.8-2.9,18.6-7.7c4.8-4.8,7.7-11.3,7.7-18.6c0-7.3-2.9-13.8-7.7-18.6
		C76.4,2.9,69.8,0,62.6,0C55.3,0,48.8,2.9,44,7.7S36.3,19,36.3,26.3c0,7.3,2.9,13.8,7.7,18.6C48.8,49.6,55.3,52.5,62.6,52.5
		 M36.3,10c-4.5,0-8.6,1.8-11.5,4.8s-4.8,7-4.8,11.5c0,4.5,1.8,8.6,4.8,11.5c2.9,2.9,7,4.8,11.5,4.8c4.5,0,8.6-1.8,11.5-4.8
		c2.9-2.9,4.8-7,4.8-11.5c0-4.5-1.8-8.6-4.8-11.5C44.8,11.8,40.8,10,36.3,10 M10,5V0H0v52.5h10V26.3c0-7.3,2.9-13.8,7.7-18.6
		S29,0,36.3,0s13.8,2.9,18.6,7.7s7.7,11.3,7.7,18.6c0,7.3-2.9,13.8-7.7,18.6c-4.8,4.8-11.3,7.7-18.6,7.7s-13.8-2.9-18.6-7.7
		C12.9,40.1,10,33.5,10,26.3V5z"/>
</g>
</svg>
