<?xml version="1.0" encoding="utf-8"?>
<!-- Generator: Adobe Illustrator 19.2.1, SVG Export Plug-In . SVG Version: 6.00 Build 0)  -->
<svg version="1.1" id="Layer_1" xmlns="http://www.w3.org/2000/svg" xmlns:xlink="http://www.w3.org/1999/xlink" x="0px" y="0px"
	 viewBox="0 0 89 52.4" style="enable-background:new 0 0 89 52.4;" xml:space="preserve">
<style type="text/css">
	.st0{clip-path:url(#SVGID_2_);fill:#ED1D24;}
</style>
<g>
	<defs>
		<rect id="SVGID_1_" width="293.9" height="92.4"/>
	</defs>
	<clipPath id="SVGID_2_">
		<use xlink:href="#SVGID_1_"  style="overflow:visible;"/>
	</clipPath>
	<path class="st0" d="M62.6,52.5c7.2,0,13.8-2.9,18.6-7.7c4.8-4.8,7.7-11.3,7.7-18.6S86,12.4,81.2,7.6C76.4,2.9,69.8,0,62.6,0
		C55.3,0,48.8,2.9,44,7.7S36.3,19,36.3,26.3s2.9,13.8,7.7,18.6C48.8,49.6,55.3,52.5,62.6,52.5 M36.3,10c-4.5,0-8.6,1.8-11.5,4.8
		s-4.8,7-4.8,11.5s1.8,8.6,4.8,11.5c2.9,2.9,7,4.8,11.5,4.8s8.6-1.8,11.5-4.8c2.9-2.9,4.8-7,4.8-11.5s-1.8-8.6-4.8-11.5
		C44.8,11.8,40.8,10,36.3,10 M10,5V0H0v52.5h10V26.3c0-7.3,2.9-13.8,7.7-18.6S29,0,36.3,0s13.8,2.9,18.6,7.7s7.7,11.3,7.7,18.6
		s-2.9,13.8-7.7,18.6s-11.3,7.7-18.6,7.7s-13.8-2.9-18.6-7.7S10,33.5,10,26.3V5z"/>
</g>
</svg>
