<?xml version="1.0" encoding="utf-8"?>
<!-- Generator: Adobe Illustrator 19.2.1, SVG Export Plug-In . SVG Version: 6.00 Build 0)  -->
<svg version="1.1" id="Layer_1" xmlns="http://www.w3.org/2000/svg" xmlns:xlink="http://www.w3.org/1999/xlink" x="0px" y="0px"
	 viewBox="0 0 177.3 73.8" style="enable-background:new 0 0 177.3 73.8;" xml:space="preserve">
<g>
	<defs>
		<rect id="SVGID_1_" y="0" width="177.3" height="73.8"/>
	</defs>
	<clipPath id="SVGID_2_">
		<use xlink:href="#SVGID_1_"  style="overflow:visible;"/>
	</clipPath>
	<path style="clip-path:url(#SVGID_2_);fill:#00A7A8;" d="M162.1,2.5c0,0-35.7-11.3-68.7,14.4c0,0,4.8,5,0.4,11.6
		C63.9-8.8,12,3.4,12,3.4s43.6,1.1,79.6,38.4C115.4,4.7,162.1,2.5,162.1,2.5"/>
	<polygon style="clip-path:url(#SVGID_2_);fill:#797879;" points="5.8,73.6 0,73.6 0,57.6 2.3,57.6 2.3,71.7 5.8,71.7 	"/>
	<polygon style="clip-path:url(#SVGID_2_);fill:#797879;" points="20.6,73.6 14.3,73.6 14.3,57.6 20.6,57.6 20.6,59.5 16.6,59.5 
		16.6,64.5 19.9,64.5 19.9,66.5 16.6,66.5 16.6,71.7 20.6,71.7 	"/>
	<path style="clip-path:url(#SVGID_2_);fill:#797879;" d="M34.4,73.6v-6.3h-3v6.3h-2.3V59.9c0-1.3,1-2.3,2.3-2.3h3.1
		c1.3,0,2.3,1,2.3,2.3v13.7H34.4z M34.4,59.5h-3v5.8h3V59.5z"/>
	<polygon style="clip-path:url(#SVGID_2_);fill:#797879;" points="50.7,73.6 47.8,73.6 44.9,57.6 47.2,57.6 49.2,70.2 51.2,57.6 
		53.5,57.6 	"/>
	<rect x="61.8" y="57.6" style="clip-path:url(#SVGID_2_);fill:#797879;" width="2.3" height="16"/>
	<path style="clip-path:url(#SVGID_2_);fill:#797879;" d="M78.8,73.6V59.5h-3.2v14.1h-2.3v-16h2.3v1.2c0.3-0.8,0.8-1.2,1.9-1.2h1.4
		c1.3,0,2.3,1,2.3,2.3v13.7H78.8z"/>
	<path style="clip-path:url(#SVGID_2_);fill:#797879;" d="M92.5,73.8c-1.3,0-2.3-1-2.3-2.3V59.9c0-1.3,1-2.3,2.3-2.3h3.2
		c1.3,0,2.3,1,2.3,2.3v3.4h-2.3v-3.8h-3.1v12.4h3.4v-4.7h-1.7v-2H98v6.3c0,1.3-1,2.3-2.3,2.3H92.5z"/>
	<path style="clip-path:url(#SVGID_2_);fill:#797879;" d="M109,73.8c-1.3,0-2.3-1-2.3-2.3v-2.7h2.3v3.1h2.6v-3.3l-4.4-5.1
		c-0.3-0.3-0.5-0.9-0.5-1.5v-2c0-1.3,1-2.3,2.3-2.3h2.6c1.3,0,2.3,1,2.3,2.3v1.5h-2.3v-1.9H109v2.7l4.5,5.1c0.4,0.4,0.4,1,0.4,1.5
		v2.7c0,1.3-1,2.3-2.3,2.3H109z"/>
	<polygon style="clip-path:url(#SVGID_2_);fill:#797879;" points="126.6,73.6 124.3,73.6 124.3,59.5 121.8,59.5 121.8,57.6 
		129,57.6 129,59.5 126.6,59.5 	"/>
	<path style="clip-path:url(#SVGID_2_);fill:#797879;" d="M139.4,73.8c-1.3,0-2.3-1-2.3-2.3V59.9c0-1.3,1-2.3,2.3-2.3h3.2
		c1.3,0,2.3,1,2.3,2.3v11.6c0,1.3-1,2.3-2.3,2.3H139.4z M142.5,59.5h-3.1v12.4h3.1V59.5z"/>
	<path style="clip-path:url(#SVGID_2_);fill:#797879;" d="M159.4,73.6V59.5h-3.2v14.1h-2.3v-16h2.3v1.2c0.3-0.8,0.8-1.2,1.9-1.2h1.4
		c1.3,0,2.3,1,2.3,2.3v13.7H159.4z"/>
	<polygon style="clip-path:url(#SVGID_2_);fill:#797879;" points="177.3,73.6 170.9,73.6 170.9,57.6 177.3,57.6 177.3,59.5 
		173.2,59.5 173.2,64.5 176.6,64.5 176.6,66.5 173.2,66.5 173.2,71.7 177.3,71.7 	"/>
</g>
</svg>
