<?xml version="1.0" encoding="utf-8"?>
<!-- Generator: Adobe Illustrator 19.2.1, SVG Export Plug-In . SVG Version: 6.00 Build 0)  -->
<svg version="1.1" id="Capa_1" xmlns="http://www.w3.org/2000/svg" xmlns:xlink="http://www.w3.org/1999/xlink" x="0px" y="0px"
	 viewBox="0 0 512 512" style="enable-background:new 0 0 512 512;" xml:space="preserve">
<style type="text/css">
	.st0{clip-path:url(#SVGID_2_);}
</style>
<g>
	<defs>
		<rect id="SVGID_1_" y="48" width="582.5" height="416.2"/>
	</defs>
	<clipPath id="SVGID_2_">
		<use xlink:href="#SVGID_1_"  style="overflow:visible;"/>
	</clipPath>
	<path class="st0" d="M281.8,49.2c-3.5-2.1-7.6-1.4-11.1,1.4L136.7,155.4H10.4c-5.6,0-10.4,4.9-10.4,10.4v180.4
		c0,5.5,4.9,10.4,10.4,10.4h126.3l133.9,105.5c2.1,1.4,4.2,2.1,6.3,2.1c1.4,0,2.8,0,4.9-1.4c3.5-2.1,5.6-5.5,5.6-9V58.2
		C288,54.1,285.2,50.6,281.8,49.2 M267.2,432.3l-120.8-94.4c-2.1-1.4-4.2-2.1-6.2-2.1H20.8V176.2h119.4c2.1,0,4.9-0.7,6.2-2.1
		l120.1-94.4v352.5H267.2z"/>
</g>
</svg>
