<?xml version="1.0" encoding="utf-8"?>
<!-- Generator: Adobe Illustrator 19.2.1, SVG Export Plug-In . SVG Version: 6.00 Build 0)  -->
<svg version="1.1" id="Layer_1" xmlns="http://www.w3.org/2000/svg" xmlns:xlink="http://www.w3.org/1999/xlink" x="0px" y="0px"
	 viewBox="0 0 15.5 19.9" style="enable-background:new 0 0 15.5 19.9;" xml:space="preserve">
<style type="text/css">
	.st0{clip-path:url(#SVGID_2_);}
</style>
<g>
	<g>
		<defs>
			<rect id="SVGID_1_" width="15.5" height="19.9"/>
		</defs>
		<clipPath id="SVGID_2_">
			<use xlink:href="#SVGID_1_"  style="overflow:visible;"/>
		</clipPath>
		<path class="st0" d="M13.5,2.1c-1.4-1.3-3.2-2-5.3-2c-3.1,0-5.1,1.3-6.1,2.4C0.8,3.8,0,5.5,0,7.3c0,2.2,0.9,3.9,2.5,4.5
			c0.1,0,0.2,0.1,0.3,0.1c0.3,0,0.6-0.2,0.7-0.6c0.1-0.2,0.2-0.7,0.2-0.9c0.1-0.4,0-0.6-0.2-0.9C3,9,2.8,8.4,2.8,7.6
			c0-2.4,1.8-5,5.1-5c2.6,0,4.3,1.5,4.3,3.9c0,1.5-0.3,2.9-0.9,4c-0.4,0.7-1.1,1.6-2.3,1.6c-0.5,0-0.9-0.2-1.2-0.5
			c-0.3-0.3-0.3-0.8-0.2-1.2c0.1-0.5,0.3-1,0.4-1.5C8.3,7.9,8.6,7,8.6,6.3c0-1.2-0.7-2-1.8-2c-1.4,0-2.5,1.4-2.5,3.2
			c0,0.9,0.2,1.5,0.3,1.8c-0.2,0.7-1.2,5.1-1.4,5.9c-0.1,0.5-0.8,4.3,0.3,4.6C4.8,20.2,6,16.5,6.1,16c0.1-0.3,0.4-1.6,0.6-2.4
			c0.6,0.6,1.6,1,2.6,1c1.8,0,3.4-0.8,4.6-2.3c1.1-1.4,1.7-3.4,1.7-5.6C15.5,5,14.8,3.3,13.5,2.1L13.5,2.1z M13.5,2.1" fill="#ffffff"/>
	</g>
</g>
</svg>
