<?xml version="1.0" encoding="utf-8"?>
<!-- Generator: Adobe Illustrator 19.2.1, SVG Export Plug-In . SVG Version: 6.00 Build 0)  -->
<svg version="1.1" id="Layer_1" xmlns="http://www.w3.org/2000/svg" xmlns:xlink="http://www.w3.org/1999/xlink" x="0px" y="0px"
	 viewBox="0 0 72.5 58.8" style="enable-background:new 0 0 72.5 58.8;" xml:space="preserve">
<g>
	<path style="stroke: #ffffff; stroke-miterlimit: 10; fill: #fff;" d="M3.8,57.3c6.7-12.5,14.1-22.7,37.1-21.7l0.1,0.1v9.9c0,0.8,0.6,1.8,1.5,2.2
		c0.8,0.3,1.6,0.1,2.1-0.5l26.7-22.6c0.4-0.3,0.7-0.9,0.7-1.4s-0.3-1.1-0.7-1.4L44.6,0.8c-0.7-0.5-1.7-0.4-2.4-0.1
		C41.5,1.1,41,1.8,41,2.6v9.9c0,0.1-0.1,0.1-0.2,0.2C5.5,16.5,2.4,41.9,1,52.8c-0.2,1.4-0.3,2.5-0.5,3.3l0,0
		c-0.2,0.9,0.3,1.8,1.2,2.1c0.2,0.1,0.4,0.1,0.6,0.1C3,58.1,3.5,57.8,3.8,57.3z M3,52.8C4.4,41.5,7.3,18,41.1,14.6
		c0.8-0.1,1.9-1,1.9-2v-10c0-0.1,0.3-0.2,0.4-0.2l0,0l26.4,20.9L43.3,46c0,0,0,0-0.1,0.1C43.1,46,43,45.7,43,45.6v-10c0-0.9-1-2-2-2
		C17.6,32.6,9.3,43,2.7,55C2.9,54.5,2.9,53.6,3,52.8z"/>
</g>
</svg>
