<?xml version="1.0" encoding="utf-8"?>
<!-- Generator: Adobe Illustrator 19.2.1, SVG Export Plug-In . SVG Version: 6.00 Build 0)  -->
<svg version="1.1" id="Layer_1" xmlns="http://www.w3.org/2000/svg" xmlns:xlink="http://www.w3.org/1999/xlink" x="0px" y="0px"
	 viewBox="0 0 15.5 12.6" style="enable-background:new 0 0 15.5 12.6;" xml:space="preserve">
<path d="M15.5,1.5C15,1.7,14.3,1.9,13.7,2c0.7-0.4,1.2-1,1.4-1.8c-0.6,0.4-1.3,0.6-2,0.8c-0.6-0.6-1.4-1-2.3-1C9,0,7.6,1.4,7.6,3.2
	c0,0.3,0,0.5,0.1,0.7C5,3.8,2.7,2.5,1.1,0.6c-0.3,0.5-0.4,1-0.4,1.6c0,1.1,0.6,2.1,1.4,2.6c-0.5,0-1-0.2-1.4-0.4c0,0,0,0,0,0
	c0,1.5,1.1,2.8,2.6,3.1C2.9,7.7,2.6,7.7,2.3,7.7c-0.2,0-0.4,0-0.6-0.1c0.4,1.3,1.6,2.2,3,2.2c-1.1,0.8-2.5,1.4-3.9,1.4
	c-0.3,0-0.5,0-0.8,0c1.4,0.9,3.1,1.4,4.9,1.4c5.9,0,9.1-4.9,9.1-9.1c0-0.1,0-0.3,0-0.4C14.6,2.7,15.1,2.1,15.5,1.5z" fill="#08a0e9"/>
</svg>
